<?xml version="1.0" standalone="no"?>
<!DOCTYPE svg PUBLIC "-//W3C//DTD SVG 20010904//EN"
 "http://www.w3.org/TR/2001/REC-SVG-20010904/DTD/svg10.dtd">
<svg version="1.0" xmlns="http://www.w3.org/2000/svg"
 width="512.000000pt" height="512.000000pt" viewBox="0 0 512.000000 512.000000"
 preserveAspectRatio="xMidYMid meet">

<g transform="translate(0.000000,512.000000) scale(0.100000,-0.100000)"
fill="#DDDDDD" stroke="none">
<path d="M1838 5108 c-16 -5 -86 -40 -158 -77 l-129 -68 -107 49 c-151 69
-180 76 -248 55 -64 -20 -119 -75 -135 -134 -15 -53 -15 -4693 0 -4746 16 -59
71 -114 135 -134 68 -21 97 -14 248 55 l107 49 129 -67 c149 -78 179 -90 230
-90 59 0 113 24 216 96 l95 66 117 -69 c129 -77 167 -93 222 -93 55 0 93 16
222 93 l117 69 95 -66 c103 -72 157 -96 216 -96 51 0 81 12 230 90 l129 67
118 -53 c144 -66 166 -70 236 -50 64 19 120 73 136 133 7 23 11 165 11 364 0
315 -1 327 -21 353 -26 33 -79 36 -109 6 -19 -19 -20 -33 -20 -350 0 -317 -1
-331 -20 -350 -11 -11 -24 -20 -30 -20 -5 0 -76 30 -157 67 l-147 66 -168 -86
c-92 -48 -179 -87 -192 -87 -13 0 -46 15 -72 33 -27 18 -86 59 -132 90 -45 31
-90 57 -100 57 -9 0 -84 -40 -166 -90 -85 -51 -161 -90 -175 -90 -15 0 -92 40
-176 90 -82 49 -158 90 -167 90 -9 0 -45 -19 -80 -43 -35 -24 -94 -65 -131
-90 -38 -26 -79 -47 -93 -47 -13 0 -100 39 -192 87 l-168 86 -147 -66 c-80
-37 -151 -67 -157 -67 -5 0 -19 9 -30 20 -20 20 -20 33 -20 2350 0 2317 0
2330 20 2350 11 11 24 20 30 20 5 0 76 -30 157 -67 l147 -66 168 86 c92 48
179 87 192 87 14 0 54 -20 90 -45 36 -25 96 -65 132 -90 36 -25 73 -45 82 -45
9 0 85 41 167 90 83 49 161 90 175 90 14 0 93 -41 175 -90 83 -49 158 -90 167
-90 10 0 55 26 100 57 46 31 105 72 132 90 26 18 59 33 72 33 13 0 100 -39
192 -87 l168 -86 147 66 c81 37 152 67 157 67 6 0 19 -9 30 -20 20 -20 20 -33
20 -1875 0 -1842 0 -1855 20 -1875 30 -30 83 -27 109 6 l21 27 0 1851 c0 1325
-3 1862 -11 1891 -15 55 -82 120 -139 135 -61 16 -92 9 -231 -53 l-120 -54
-129 67 c-151 79 -179 90 -234 90 -61 -1 -102 -19 -209 -94 l-98 -68 -117 69
c-129 77 -167 93 -222 93 -55 0 -93 -16 -222 -93 l-117 -69 -95 66 c-53 37
-114 73 -137 81 -47 17 -111 18 -151 3z"/>
<path d="M2514 4596 c-26 -21 -28 -30 -32 -114 l-4 -90 -47 -12 c-227 -57
-391 -270 -391 -507 l0 -73 -84 0 c-101 0 -136 -19 -136 -75 0 -24 7 -39 26
-54 26 -21 34 -21 714 -21 680 0 688 0 714 21 34 27 35 71 1 104 -22 23 -32
25 -110 25 l-85 0 0 73 c0 238 -164 450 -391 507 l-47 12 -4 90 c-4 84 -6 93
-32 114 -15 13 -36 24 -46 24 -10 0 -31 -11 -46 -24z m118 -357 c115 -25 214
-102 264 -207 22 -45 29 -76 32 -144 l4 -88 -372 0 -372 0 4 88 c5 106 36 179
105 247 52 52 100 79 176 100 65 17 92 18 159 4z"/>
<path d="M1544 3391 c-23 -10 -52 -34 -65 -52 -22 -31 -24 -45 -27 -171 -3
-128 -2 -140 19 -178 13 -23 39 -51 59 -63 l35 -22 996 0 995 0 37 25 c21 14
47 44 58 67 18 38 20 57 17 175 -3 122 -5 136 -27 167 -13 18 -42 42 -65 52
-39 17 -78 19 -668 19 -445 0 -634 -3 -652 -11 -51 -23 -55 -103 -7 -128 13
-8 224 -11 646 -11 l626 0 -3 -102 -3 -103 -955 0 -955 0 -3 103 -3 102 185 0
185 0 20 26 c28 35 26 69 -4 99 -24 25 -26 25 -212 25 -162 0 -194 -3 -229
-19z"/>
<path d="M1472 2617 c-27 -29 -28 -67 -3 -98 l19 -24 480 -3 480 -3 28 24 c35
31 38 82 5 109 -22 17 -52 18 -505 18 l-483 0 -21 -23z"/>
<path d="M3280 2620 c-30 -30 -27 -83 7 -110 26 -20 37 -21 186 -18 153 3 160
4 178 27 26 32 24 73 -4 99 -22 21 -33 22 -185 22 -149 0 -164 -2 -182 -20z"/>
<path d="M1475 2235 c-14 -13 -25 -36 -25 -50 0 -14 11 -37 25 -50 l24 -25
475 0 c261 0 482 3 491 6 28 11 46 59 35 90 -21 55 -8 53 -523 54 l-478 0 -24
-25z"/>
<path d="M3286 2239 c-34 -27 -36 -79 -4 -109 20 -18 35 -20 180 -20 155 0
159 1 183 25 14 13 25 36 25 50 0 14 -11 37 -25 50 -23 24 -28 25 -178 25
-141 0 -157 -2 -181 -21z"/>
<path d="M1495 1869 c-49 -27 -60 -80 -25 -117 l21 -22 488 0 c476 0 488 0
506 20 25 28 23 76 -4 103 -22 22 -22 22 -494 24 -331 2 -478 -1 -492 -8z"/>
<path d="M3310 1873 c-51 -19 -68 -85 -30 -123 18 -18 33 -20 185 -20 156 0
165 1 185 22 11 12 20 32 20 44 0 71 -34 84 -207 83 -76 0 -145 -3 -153 -6z"/>
<path d="M1472 1467 c-27 -29 -28 -67 -3 -98 l19 -24 480 -3 480 -3 28 24 c35
31 38 82 5 109 -22 17 -52 18 -505 18 l-483 0 -21 -23z"/>
<path d="M3280 1470 c-30 -30 -27 -83 7 -110 26 -20 37 -21 186 -18 153 3 160
4 178 27 26 32 24 73 -4 99 -22 21 -33 22 -185 22 -149 0 -164 -2 -182 -20z"/>
<path d="M1475 1085 c-14 -13 -25 -36 -25 -50 0 -14 11 -37 25 -50 l24 -25
1061 0 1061 0 24 25 c32 31 32 69 0 100 l-24 25 -1061 0 -1061 0 -24 -25z"/>
<path d="M2955 705 c-24 -24 -31 -57 -19 -90 10 -24 60 -46 89 -39 57 14 75
97 29 133 -35 28 -69 26 -99 -4z"/>
<path d="M3310 723 c-51 -19 -68 -85 -30 -123 18 -18 33 -20 183 -20 158 0
164 1 185 23 36 38 28 88 -19 112 -21 11 -63 15 -166 14 -76 0 -145 -3 -153
-6z"/>
</g>
</svg>
